<?xml version="1.0" encoding="UTF-8" standalone="no"?>
<!-- Created with Inkscape (http://www.inkscape.org/) -->

<svg
   xmlns:dc="http://purl.org/dc/elements/1.1/"
   xmlns:cc="http://creativecommons.org/ns#"
   xmlns:rdf="http://www.w3.org/1999/02/22-rdf-syntax-ns#"
   xmlns:svg="http://www.w3.org/2000/svg"
   xmlns="http://www.w3.org/2000/svg"
   xmlns:sodipodi="http://sodipodi.sourceforge.net/DTD/sodipodi-0.dtd"
   xmlns:inkscape="http://www.inkscape.org/namespaces/inkscape"
   width="90.515907mm"
   height="45.295551mm"
   viewBox="0 0 90.515907 45.295551"
   version="1.1"
   id="svg2190"
   inkscape:version="0.92.3 (2405546, 2018-03-11)"
   sodipodi:docname="button_get_notified.svg">
  <defs
     id="defs2184" />
  <sodipodi:namedview
     id="base"
     pagecolor="#ffffff"
     bordercolor="#666666"
     borderopacity="1.0"
     inkscape:pageopacity="0.0"
     inkscape:pageshadow="2"
     inkscape:zoom="2.8"
     inkscape:cx="165.39931"
     inkscape:cy="91.447803"
     inkscape:document-units="mm"
     inkscape:current-layer="layer1"
     showgrid="false"
     inkscape:window-width="3773"
     inkscape:window-height="2105"
     inkscape:window-x="67"
     inkscape:window-y="27"
     inkscape:window-maximized="1" />
  <metadata
     id="metadata2187">
    <rdf:RDF>
      <cc:Work
         rdf:about="">
        <dc:format>image/svg+xml</dc:format>
        <dc:type
           rdf:resource="http://purl.org/dc/dcmitype/StillImage" />
        <dc:title></dc:title>
      </cc:Work>
    </rdf:RDF>
  </metadata>
  <g
     inkscape:label="Layer 1"
     inkscape:groupmode="layer"
     id="layer1"
     transform="translate(-37.896804,-149.62008)">
    <path
       transform="rotate(-75.922059)"
       style="display:inline;opacity:1;vector-effect:none;fill:#000000;fill-opacity:1;stroke:none;stroke-width:3.03699994;stroke-linecap:butt;stroke-linejoin:miter;stroke-miterlimit:4;stroke-dasharray:none;stroke-dashoffset:0;stroke-opacity:1"
       d="m -151.60748,132.09369 h 1.65364 v 0.54334 h -1.65364 z"
       id="rect1822" />
    <rect
       inkscape:export-ydpi="149.76195"
       inkscape:export-xdpi="149.76195"
       inkscape:export-filename="/home/makr/Documents/uni/TU/3.Master/experiments/own/tfjs-models/posenet/demos/images/accept_and_start.png"
       ry="8.1651669"
       style="display:inline;opacity:1;fill:none;fill-opacity:1;stroke:#000000;stroke-width:1.30900002;stroke-miterlimit:4;stroke-dasharray:none;stroke-opacity:1"
       y="150.27458"
       x="38.551304"
       height="43.986549"
       width="89.206909"
       id="rect1781" />
    <g
       aria-label="GET NOTIFIed"
       transform="matrix(0.26458333,0,0,0.26458333,-45.628437,66.160356)"
       style="font-style:normal;font-weight:normal;font-size:40px;line-height:1.25;font-family:sans-serif;letter-spacing:0px;word-spacing:0px;display:inline;opacity:1;fill:#000000;fill-opacity:1;stroke:none"
       id="flowRoot1789">
      <path
         d="m 359.21891,392.65579 c 0.59734,-4.256 0.97067,-8.66133 1.26934,-12.99199 0.0747,-1.41867 -1.49334,-3.06134 -2.688,-3.28534 -1.86667,-0.37333 -3.73334,-0.29866 -5.67467,-0.59733 -2.688,-0.37333 -3.73333,1.64267 -3.88267,3.28533 -0.0747,1.12 2.31467,2.53867 3.28534,2.688 1.04533,0.224 2.09066,0.224 3.28533,0.224 -0.29867,3.65867 -0.37333,7.168 -0.97067,10.60267 -0.896,5.00266 -2.24,10.00533 -3.36,15.008 -0.14933,0.59733 -0.52266,0.74666 -0.672,0.74666 -0.14933,0 -0.52266,-0.448 -0.672,-0.74666 -0.896,-1.94134 -1.64266,-3.808 -1.94133,-5.67467 -0.97067,-5.376 -1.86667,-10.752 -1.64267,-16.20267 0.14934,-2.91199 -0.29866,-5.74933 -0.14933,-8.66133 0.14933,-3.88266 0.52267,-7.76533 0.896,-11.648 0.224,-2.912 0.448,-5.824 0.97067,-8.66133 0.82133,-4.33067 1.792,-8.512 2.912,-12.768 0.52266,-2.016 1.26933,-2.24 2.98666,-1.19467 0.224,0.14934 0.37334,0.29867 0.59734,0.448 0.224,0.14934 0.59733,0.448 1.04533,0.59734 0,0 0.0747,0.0747 0.224,0.224 0.224,0.224 0.448,0.448 0.74667,0.74666 0.52266,0.448 1.64266,1.26934 3.136,0.74667 0.59733,-0.14933 1.12,-0.59733 1.41866,-1.19467 0.896,-2.09066 -3.06133,-5.824 -4.704,-6.72 -2.688,-2.38933 -8.66133,-1.04533 -9.856,2.31467 -0.82133,2.16533 -1.792,4.33067 -2.31466,6.64533 -0.896,4.40534 -1.71734,8.81067 -2.16534,13.29067 -0.52266,4.62933 -0.82133,9.25867 -0.97066,13.888 -0.224,4.928 -0.59734,9.93066 -0.224,14.784 0.29866,4.10666 0.29866,8.21333 1.49333,12.17066 0.59733,2.16534 0.672,4.40534 1.19467,6.57067 0.29866,1.26933 0.74666,2.76267 1.71733,3.95733 2.688,3.43467 7.76533,4.032 10.22933,0.224 0.82134,-1.26933 1.49334,-2.76266 1.792,-4.33066 0.97067,-4.77867 1.94134,-9.632 2.688,-14.48534 z"
         style="font-style:normal;font-variant:normal;font-weight:normal;font-stretch:normal;font-size:74.66666412px;font-family:'The Skinny';-inkscape-font-specification:'The Skinny';text-align:center;text-anchor:middle"
         id="path2822" />
      <path
         d="m 373.77191,407.81313 c 0,-2.16534 0,-4.33067 0,-6.496 0.14934,-7.46667 0.224,-14.93334 0.37334,-22.4 0.0747,-4.704 0.224,-9.408 0.29866,-14.112 1.64267,0 3.28534,-0.14933 4.928,-0.224 2.61334,-0.0747 2.83734,-2.464 2.688,-3.50933 -0.224,-1.568 -1.64266,-2.53867 -3.43466,-2.16534 -1.26934,0.29867 -2.61334,0.37334 -3.95734,0.52267 v -17.09867 c 2.38934,0 4.55467,0 6.79467,0 1.792,0 3.28533,-1.04533 3.28533,-3.136 -0.0747,-2.61333 -2.464,-2.76266 -3.36,-2.76266 -2.688,0.0747 -5.45066,-0.0747 -8.13866,0.14933 -1.344,0.0747 -2.688,0.97067 -3.50934,1.86667 -0.448,0.59733 -0.52266,1.41866 -0.448,2.09066 0,0.37334 0.14934,0.82134 0.14934,1.19467 0,5.30133 0.14933,10.60267 0.0747,15.904 -0.0747,4.928 -0.448,9.856 -0.52266,14.70933 -0.14934,5.07734 0,10.15467 -0.0747,15.232 0,3.36 -0.224,6.72 -0.29867,10.15467 -0.0747,3.28533 -0.14933,6.64533 -0.29866,10.00533 -0.0747,1.04533 -0.0747,1.792 -0.0747,2.38933 0.14933,1.64267 0.82133,2.688 2.61333,3.06134 0.52267,0.14933 1.26934,0.224 2.24,0.29866 0.448,0.0747 0.82134,0.14934 1.26934,0.224 1.41866,0.14934 2.912,0.37334 4.33066,0.37334 0.74667,0 1.344,-0.448 1.64267,-0.59734 0.224,-0.14933 0.448,-0.37333 1.94133,-1.344 -0.97066,-1.344 -1.04533,-1.49333 -1.04533,-1.568 -0.14933,-0.224 -0.224,-0.37333 -0.29867,-0.59733 -0.37333,-0.52267 -0.896,-1.12 -1.568,-1.26933 -1.71733,-0.448 -3.65866,-0.896 -5.6,-0.896 z"
         style="font-style:normal;font-variant:normal;font-weight:normal;font-stretch:normal;font-size:74.66666412px;font-family:'The Skinny';-inkscape-font-specification:'The Skinny';text-align:center;text-anchor:middle"
         id="path2824" />
      <path
         d="m 399.26358,341.88246 c 0.224,1.19467 0.37333,2.38934 0.37333,3.50934 0,4.40533 -0.14933,8.81066 -0.14933,13.14133 0,3.136 0.14933,6.34667 0.29866,9.48267 0.224,5.52533 0.672,11.05066 0.74667,16.57599 0.0747,6.496 0,12.91734 -0.0747,19.41334 0,2.31466 0,4.704 -0.0747,7.09333 0,1.792 1.344,3.50933 3.50933,2.83733 1.12,-0.29866 2.24,-1.71733 2.31467,-2.912 0.0747,-1.94133 -0.14934,-3.88266 -0.14934,-5.89866 -0.0747,-6.496 0,-13.06667 -0.14933,-19.56267 -0.0747,-3.50933 -0.29867,-6.944 -0.448,-10.45333 -0.14933,-4.10667 -0.37333,-8.288 -0.37333,-12.46933 -0.0747,-6.79467 0,-13.58934 0,-20.53334 1.19466,0.0747 2.38933,0.0747 3.65866,0.14934 0.97067,0 3.65867,-0.14934 3.50934,-3.06134 -0.0747,-2.688 -2.38934,-2.83733 -3.584,-2.76266 -1.71734,0.14933 -3.36,0.14933 -5.07734,0.14933 -1.71733,0 -4.256,-0.0747 -6.42133,0 -3.06133,0.0747 -5.22667,1.41867 -5.30133,2.09067 -0.14934,2.16533 0.97066,2.98666 3.50933,3.06133 1.344,0 2.61333,0 3.88267,0.14933 z"
         style="font-style:normal;font-variant:normal;font-weight:normal;font-stretch:normal;font-size:74.66666412px;font-family:'The Skinny';-inkscape-font-specification:'The Skinny';text-align:center;text-anchor:middle"
         id="path2826" />
      <path
         d="m 458.16507,387.87713 c -0.224,-1.12 -0.448,-2.16534 -0.672,-3.28534 -1.568,-7.24266 -3.35999,-14.33599 -5.07733,-21.50399 -1.26933,-5.152 -2.38933,-10.37867 -3.808,-15.456 -0.74666,-2.83734 -2.016,-5.52534 -3.06133,-8.288 -0.896,-2.464 -3.06133,-2.38934 -4.40533,-2.09067 -2.688,0.672 -2.24,3.136 -1.94134,4.032 0.0747,0.224 0,0.74667 0.0747,0.97067 0.0747,2.83733 0.0747,5.67466 0.224,8.512 0.0747,1.792 0.448,3.584 0.448,5.45066 0.0747,2.38934 -0.0747,4.77867 -0.0747,7.168 0,4.85334 -0.0747,9.632 0.0747,14.48534 0.0747,2.16533 0.224,15.08266 0.29867,18.14399 0,2.24 0.224,4.55467 0.37333,6.86934 0.0747,2.24 0.14933,4.48 -0.29867,6.64533 -0.29866,1.64267 1.94134,2.83733 2.76267,2.83733 1.86667,0 3.136,-1.26933 3.06133,-3.36 -0.224,-4.85333 -0.29866,-9.78133 -0.448,-14.63466 -0.14933,-4.10667 -0.52266,-8.13867 -0.59733,-12.24533 -0.0747,-5.6 -0.0747,-11.27467 -0.0747,-16.94934 0,-1.49333 -0.0747,-2.98666 -0.14933,-4.48 -0.0747,-2.98666 -0.0747,-5.89866 -0.14933,-8.81066 0,-1.12 0,-2.16534 -0.0747,-3.21067 -0.0747,-1.04533 -0.224,-2.016 -0.672,-2.912 l -1.344,0.672 c 0.29867,0.59733 0.59733,1.26933 0.82133,1.94133 0.97067,3.50934 2.09067,6.944 2.912,10.45334 1.19467,4.85333 2.16534,9.70666 3.21067,14.63466 0.37333,1.94134 0.74667,3.88267 1.19467,5.824 0.37333,1.568 0.97066,3.136 1.344,4.704 0.97066,4.704 2.016,9.408 2.76266,14.112 0.672,4.032 1.04533,8.13867 1.49333,12.17067 0.224,2.16533 2.016,3.65866 3.73334,3.808 1.86666,0.224 3.50933,-1.12 3.50933,-3.808 0,-4.85334 0,-9.70667 0,-14.56 0,-3.65867 0,-7.31734 0,-10.90134 -0.0747,-3.80799 -0.37333,-7.61599 -0.37333,-11.42399 -0.0747,-5.67467 -0.0747,-11.424 0,-17.17334 0,-5.6 0.29866,-11.2 0.29866,-16.8 0,-0.82133 -0.448,-1.41866 -0.97066,-2.09066 -0.0747,-0.0747 -0.14934,-0.14934 -1.344,-1.94134 -1.344,1.64267 -1.41867,1.792 -1.568,1.86667 -0.59734,0.59733 -1.19467,1.19467 -1.26934,2.16533 -0.224,2.98667 -0.29866,5.97334 -0.29866,8.96 -0.0747,5.67467 -0.14934,11.424 -0.0747,17.17334 0,4.40533 0,8.81066 0.0747,13.216 0,1.94133 0.29866,3.95733 0.29866,5.97333 0,1.04533 -0.14933,2.09066 -0.224,3.136 z"
         style="font-style:normal;font-variant:normal;font-weight:normal;font-stretch:normal;font-size:74.66666412px;font-family:'The Skinny';-inkscape-font-specification:'The Skinny';text-align:center;text-anchor:middle"
         id="path2828" />
      <path
         d="m 487.43324,347.03446 c 0.224,3.28534 0.97066,6.57067 1.04533,9.856 0.14933,4.18134 -0.0747,8.36267 -0.14933,12.544 -0.0747,4.33067 0.14933,8.66134 -0.29867,12.91734 -0.448,3.65866 -0.52267,7.39199 -0.82133,11.05066 -0.224,3.65867 -0.52267,7.24267 -1.568,10.67733 -0.14934,0.59734 -0.29867,1.19467 -0.52267,1.792 -0.14933,0.59734 -0.29867,1.12 -0.52267,1.64267 -0.14933,0.224 -0.29866,0.672 -0.52266,0.97067 0.0747,0 0.0747,0.0747 0.14933,0.14933 -0.896,-0.224 -1.64267,-0.82133 -1.86667,-1.19467 -0.74666,-1.26933 -1.12,-2.912 -1.41866,-4.62933 -0.896,-5.824 -1.71734,-11.648 -2.61334,-17.54667 0,-5.45066 -0.224,-10.97599 0.14934,-16.50133 0.52266,-6.57066 1.41866,-13.06666 2.53866,-19.56266 0.52267,-2.83734 1.26934,-5.45067 3.28534,-7.31734 0.224,-0.14933 0.14933,-0.37333 0.224,-0.224 0.14933,0.29867 0.37333,0.52267 0.52266,0.672 0.224,0.14934 0.37334,0.29867 0.52267,0.448 1.26933,1.04534 1.792,2.38934 1.86667,4.256 z m 6.19733,26.208 c 0.0747,-2.53866 0.0747,-5.07733 0.0747,-7.54133 0,-4.10667 0.14933,-8.21333 0,-12.32 -0.0747,-2.53867 -0.82134,-5.00267 -0.97067,-7.46667 -0.14933,-3.584 -1.86667,-6.19733 -4.256,-8.288 -1.41867,-1.344 -6.19733,-1.94133 -7.69067,0.14934 -1.26933,1.792 -2.688,3.88266 -3.50933,6.12266 -0.97067,2.53867 -1.568,5.30134 -2.09067,7.98934 -0.59733,2.912 -1.19466,5.89866 -1.41866,8.81066 -0.37334,4.55467 -0.52267,9.184 -0.52267,13.73867 0,4.85333 0.14933,9.78133 0.448,14.63466 0.14933,2.31467 0.59733,4.55467 0.97067,6.86934 h -0.29867 c 0.896,4.62933 1.41867,7.84 2.016,10.976 0.224,1.19466 0.672,2.53866 1.344,3.65866 1.49333,2.61334 4.77867,3.88267 7.24267,3.43467 2.912,-0.52267 4.33066,-2.83733 4.85333,-5.152 0.74667,-3.136 1.568,-6.272 1.94133,-9.48267 0.52267,-4.10666 0.74667,-8.21333 1.04534,-12.39466 0.29866,-4.55467 0.59733,-9.184 0.82133,-13.73867 z"
         style="font-style:normal;font-variant:normal;font-weight:normal;font-stretch:normal;font-size:74.66666412px;font-family:'The Skinny';-inkscape-font-specification:'The Skinny';text-align:center;text-anchor:middle"
         id="path2830" />
      <path
         d="m 509.36774,341.88246 c 0.224,1.19467 0.37334,2.38934 0.37334,3.50934 0,4.40533 -0.14934,8.81066 -0.14934,13.14133 0,3.136 0.14934,6.34667 0.29867,9.48267 0.224,5.52533 0.672,11.05066 0.74667,16.57599 0.0747,6.496 0,12.91734 -0.0747,19.41334 0,2.31466 0,4.704 -0.0747,7.09333 0,1.792 1.344,3.50933 3.50934,2.83733 1.12,-0.29866 2.24,-1.71733 2.31466,-2.912 0.0747,-1.94133 -0.14933,-3.88266 -0.14933,-5.89866 -0.0747,-6.496 0,-13.06667 -0.14933,-19.56267 -0.0747,-3.50933 -0.29867,-6.944 -0.448,-10.45333 -0.14934,-4.10667 -0.37334,-8.288 -0.37334,-12.46933 -0.0747,-6.79467 0,-13.58934 0,-20.53334 1.19467,0.0747 2.38934,0.0747 3.65867,0.14934 0.97066,0 3.65866,-0.14934 3.50933,-3.06134 -0.0747,-2.688 -2.38933,-2.83733 -3.584,-2.76266 -1.71733,0.14933 -3.36,0.14933 -5.07733,0.14933 -1.71733,0 -4.256,-0.0747 -6.42133,0 -3.06134,0.0747 -5.22667,1.41867 -5.30134,2.09067 -0.14933,2.16533 0.97067,2.98666 3.50934,3.06133 1.344,0 2.61333,0 3.88266,0.14933 z"
         style="font-style:normal;font-variant:normal;font-weight:normal;font-stretch:normal;font-size:74.66666412px;font-family:'The Skinny';-inkscape-font-specification:'The Skinny';text-align:center;text-anchor:middle"
         id="path2832" />
      <path
         d="m 537.20791,346.36246 c -0.29867,-3.21066 -0.448,-4.928 -0.59733,-6.64533 -0.0747,-0.59733 -0.0747,-1.12 -0.224,-1.71733 -0.37334,-0.97067 -1.26934,-1.568 -2.464,-1.568 -2.76267,0 -2.98667,2.38933 -2.98667,3.584 0.14933,4.33066 0.37333,8.736 0.29867,13.06666 -0.0747,4.55467 -0.448,9.10934 -0.59734,13.73867 -0.0747,4.032 -0.0747,8.064 -0.0747,12.096 0,5.52533 0.0747,11.12533 0.0747,16.72533 0,5.00267 -0.0747,10.08 -0.224,15.08267 -0.0747,1.94133 1.04534,3.28533 2.912,3.36 1.568,0 2.83734,-1.94134 2.83734,-2.98667 0.0747,-4.85333 -0.0747,-9.632 -0.14934,-14.41067 -0.0747,-2.016 -0.29866,-3.95733 -0.29866,-5.89866 0.0747,-4.40534 0.29866,-8.81067 0.37333,-13.216 0.0747,-5.00267 0,-9.93067 0.14933,-14.85867 0.14934,-5.89866 0.448,-11.72266 0.82134,-19.63733 l -3.43467,3.584 z"
         style="font-style:normal;font-variant:normal;font-weight:normal;font-stretch:normal;font-size:74.66666412px;font-family:'The Skinny';-inkscape-font-specification:'The Skinny';text-align:center;text-anchor:middle"
         id="path2834" />
      <path
         d="m 552.43524,366.82113 c 0.448,0.0747 0.896,0.0747 1.26934,0.224 1.26933,0.29867 3.808,0.37333 4.18133,-2.24 0.224,-1.41867 -0.52267,-2.24 -1.41867,-2.688 -0.52266,-0.224 -1.12,-0.29867 -1.71733,-0.37333 -0.82133,-0.14934 -1.568,-0.29867 -2.38933,-0.448 l 0.82133,-18.89067 c 1.04533,-0.0747 2.016,-0.0747 3.06133,0 0.448,0 0.82134,0.0747 1.26934,0.0747 0.52266,0 1.04533,0.14933 1.568,0.0747 1.26933,-0.0747 3.35999,-1.04533 2.98666,-3.28533 -0.14933,-1.19467 -1.49333,-2.53867 -2.76266,-2.688 -1.71734,-0.224 -3.43467,-0.14933 -5.152,-0.0747 -1.12,0.0747 -2.31467,0.448 -3.43467,0.59734 -1.568,0.29866 -3.06133,1.26933 -2.83733,3.43466 0.0747,1.12 0.29866,2.24 0.224,3.28534 -0.224,4.77866 -0.59734,9.55733 -0.896,14.336 -0.29867,5.07733 0.37333,10.08 -0.224,15.15733 -0.37334,3.65867 -0.0747,7.392 -0.0747,11.12533 0,2.83733 -0.14933,5.74933 -0.14933,8.66133 0,2.31467 0.224,4.704 0.14933,7.09334 -0.14933,3.584 -0.52267,7.24266 -0.74667,10.82666 -0.0747,1.19467 0.448,3.584 3.06134,2.98667 1.12,-0.29867 2.24,-1.41867 2.464,-2.61333 0.29866,-1.344 0.224,-2.76267 0.224,-4.18134 0.0747,-4.33066 0.224,-8.66133 0.14933,-12.992 -0.0747,-2.98666 -0.37333,-5.97333 -0.448,-8.88533 0,-1.94133 0.224,-3.88266 0.29867,-5.824 0.14933,-4.256 0.37333,-8.43733 0.52266,-12.69333 z"
         style="font-style:normal;font-variant:normal;font-weight:normal;font-stretch:normal;font-size:74.66666412px;font-family:'The Skinny';-inkscape-font-specification:'The Skinny';text-align:center;text-anchor:middle"
         id="path2836" />
      <path
         d="m 576.43707,346.36246 c -0.29867,-3.21066 -0.448,-4.928 -0.59734,-6.64533 -0.0747,-0.59733 -0.0747,-1.12 -0.224,-1.71733 -0.37333,-0.97067 -1.26933,-1.568 -2.464,-1.568 -2.76266,0 -2.98666,2.38933 -2.98666,3.584 0.14933,4.33066 0.37333,8.736 0.29866,13.06666 -0.0747,4.55467 -0.448,9.10934 -0.59733,13.73867 -0.0747,4.032 -0.0747,8.064 -0.0747,12.096 0,5.52533 0.0747,11.12533 0.0747,16.72533 0,5.00267 -0.0747,10.08 -0.224,15.08267 -0.0747,1.94133 1.04533,3.28533 2.912,3.36 1.568,0 2.83733,-1.94134 2.83733,-2.98667 0.0747,-4.85333 -0.0747,-9.632 -0.14933,-14.41067 -0.0747,-2.016 -0.29867,-3.95733 -0.29867,-5.89866 0.0747,-4.40534 0.29867,-8.81067 0.37334,-13.216 0.0747,-5.00267 0,-9.93067 0.14933,-14.85867 0.14933,-5.89866 0.448,-11.72266 0.82133,-19.63733 l -3.43466,3.584 z"
         style="font-style:normal;font-variant:normal;font-weight:normal;font-stretch:normal;font-size:74.66666412px;font-family:'The Skinny';-inkscape-font-specification:'The Skinny';text-align:center;text-anchor:middle"
         id="path2838" />
      <path
         d="m 590.91773,407.81313 c 0,-2.16534 0,-4.33067 0,-6.496 0.14934,-7.46667 0.224,-14.93334 0.37334,-22.4 0.0747,-4.704 0.224,-9.408 0.29866,-14.112 1.64267,0 3.28534,-0.14933 4.928,-0.224 2.61333,-0.0747 2.83733,-2.464 2.688,-3.50933 -0.224,-1.568 -1.64267,-2.53867 -3.43466,-2.16534 -1.26934,0.29867 -2.61334,0.37334 -3.95734,0.52267 v -17.09867 c 2.38934,0 4.55467,0 6.79467,0 1.792,0 3.28533,-1.04533 3.28533,-3.136 -0.0747,-2.61333 -2.464,-2.76266 -3.36,-2.76266 -2.688,0.0747 -5.45066,-0.0747 -8.13866,0.14933 -1.344,0.0747 -2.688,0.97067 -3.50934,1.86667 -0.448,0.59733 -0.52266,1.41866 -0.448,2.09066 0,0.37334 0.14934,0.82134 0.14934,1.19467 0,5.30133 0.14933,10.60267 0.0747,15.904 -0.0747,4.928 -0.448,9.856 -0.52266,14.70933 -0.14934,5.07734 0,10.15467 -0.0747,15.232 0,3.36 -0.224,6.72 -0.29867,10.15467 -0.0747,3.28533 -0.14933,6.64533 -0.29866,10.00533 -0.0747,1.04533 -0.0747,1.792 -0.0747,2.38933 0.14933,1.64267 0.82133,2.688 2.61333,3.06134 0.52267,0.14933 1.26934,0.224 2.24,0.29866 0.448,0.0747 0.82134,0.14934 1.26934,0.224 1.41866,0.14934 2.912,0.37334 4.33066,0.37334 0.74667,0 1.344,-0.448 1.64267,-0.59734 0.224,-0.14933 0.448,-0.37333 1.94133,-1.344 -0.97067,-1.344 -1.04533,-1.49333 -1.04533,-1.568 -0.14934,-0.224 -0.224,-0.37333 -0.29867,-0.59733 -0.37333,-0.52267 -0.896,-1.12 -1.568,-1.26933 -1.71733,-0.448 -3.65866,-0.896 -5.6,-0.896 z"
         style="font-style:normal;font-variant:normal;font-weight:normal;font-stretch:normal;font-size:74.66666412px;font-family:'The Skinny';-inkscape-font-specification:'The Skinny';text-align:center;text-anchor:middle"
         id="path2840" />
      <path
         d="m 615.73741,343.1518 c 2.98667,1.344 5.152,3.43466 6.19734,6.72 1.344,4.33066 2.09066,8.66133 1.86666,13.14133 -0.29866,4.62933 -0.0747,9.25867 -0.224,13.81333 -0.0747,2.24 -0.29866,4.48 -0.672,6.64534 -0.672,4.18133 -1.12,8.43733 -2.31466,12.46933 -1.19467,3.808 -2.83734,7.31733 -5.67467,9.93066 z m 12.32,38.90133 c 0.52267,-4.33067 0.97067,-8.736 1.19467,-13.06667 0.14933,-2.76266 -0.14933,-5.52533 -0.29867,-8.064 0.52267,-4.928 -0.896,-9.48266 -2.31466,-13.44 -1.86667,-5.376 -6.19734,-8.736 -11.34934,-10.60266 -3.21066,-1.19467 -5.152,0.224 -5.07733,3.584 0.0747,1.41866 0.29867,2.76266 0.224,4.10666 -0.0747,2.76267 -0.37333,5.45067 -0.448,8.13867 -0.0747,7.54133 0,15.008 -0.0747,22.54933 0,5.89867 -0.0747,11.72267 -0.224,17.62133 -0.0747,4.77867 -0.29866,9.48267 -0.52266,14.26134 0,0.74666 -0.14934,1.49333 -0.14934,2.24 0,0.97066 0.29867,2.016 1.26934,3.06133 0.97066,1.12 2.688,2.76267 4.928,0.59733 1.94133,-1.792 3.73333,-3.65866 5.45066,-5.6 1.568,-1.71733 2.61334,-3.584 3.136,-5.97333 0.0747,-0.448 0.224,-0.97067 0.37334,-1.41867 0.59733,-1.64266 1.41866,-3.136 1.792,-4.928 0.82133,-4.33066 1.568,-8.66133 2.09066,-13.06666 z"
         style="font-style:normal;font-variant:normal;font-weight:normal;font-stretch:normal;font-size:74.66666412px;font-family:'The Skinny';-inkscape-font-specification:'The Skinny';text-align:center;text-anchor:middle"
         id="path2842" />
    </g>
    <g
       aria-label="about opponents Actions"
       transform="matrix(0.28473411,0,0,0.28473411,-56.35573,82.894486)"
       style="font-style:normal;font-weight:normal;font-size:40px;line-height:1.25;font-family:sans-serif;letter-spacing:0px;word-spacing:0px;display:inline;opacity:1;fill:#000000;fill-opacity:1;stroke:none;stroke-width:0.9292295"
       id="flowRoot1789-1">
      <path
         d="m 359.19374,344.43042 c 0.832,4.672 1.12,9.44 2.208,14.08 l -3.968,-0.192 z m 5.728,25.888 c 0.256,-0.224 0.256,-0.544 0.256,-0.64 0,-0.128 -0.032,-0.256 -0.032,-0.352 -0.096,-0.576 -0.192,-1.152 -0.288,-1.76 -0.192,-1.504 -0.352,-3.008 -0.576,-4.544 -0.32,-2.208 -0.704,-4.448 -1.088,-6.656 -0.352,-1.984 -0.8,-3.936 -1.12,-5.92 -0.288,-1.792 -0.448,-3.584 -0.672,-5.376 -0.256,-1.824 -0.512,-3.648 -0.864,-5.472 -0.032,-0.32 -0.192,-0.608 -0.32,-0.832 -0.128,-0.224 -0.256,-0.448 -0.736,-1.408 -0.8,0.672 -0.96,0.8 -1.088,0.896 -0.128,0.096 -0.416,0.32 -0.512,0.64 -0.224,0.8 -0.352,1.632 -0.48,2.464 -0.096,0.8 -0.128,1.6 -0.224,2.368 -0.288,1.952 -0.608,3.904 -0.864,5.856 -0.256,2.144 -0.448,4.256 -0.704,6.4 -0.192,1.664 -0.448,3.296 -0.576,4.96 -0.16,2.176 -0.224,4.384 -0.288,6.56 -0.032,0.896 0,1.792 0,3.2 1.76,0.416 2.176,-0.512 2.208,-1.216 0.032,-0.832 0,-1.632 0.032,-2.432 0.032,-1.632 0.096,-3.232 0.16,-4.864 0.032,-0.544 0.096,-1.088 0.128,-1.6 1.472,-0.32 2.912,-0.128 4.416,0.256 0.032,0.032 0.096,0.032 0.096,0.064 0.256,1.888 0.512,3.808 0.704,5.728 0.128,1.056 0.16,2.112 0.256,3.168 0.032,0.32 0.192,0.544 0.288,0.64 0.064,0.096 0.16,0.192 0.576,0.832 0.64,-0.448 0.768,-0.512 0.896,-0.608 0.128,-0.064 0.288,-0.192 0.416,-0.352 z"
         style="font-style:normal;font-variant:normal;font-weight:normal;font-stretch:normal;font-size:32px;font-family:'The Skinny';-inkscape-font-specification:'The Skinny';text-align:center;text-anchor:middle;stroke-width:0.9292295"
         id="path2779" />
      <path
         d="m 373.58224,357.51842 c 0.64,1.856 0.8,3.712 0.416,5.568 -0.096,0.384 -0.256,0.8 -0.48,1.216 -0.224,0.48 -0.48,0.928 -0.672,1.376 -0.384,0.864 -1.088,1.472 -1.76,2.08 v -12.832 c 1.12,0.32 2.016,1.248 2.496,2.592 z m -2.496,-16.8 c 0.896,0.96 1.44,2.144 1.696,3.488 0.096,0.576 0.256,1.152 0.384,1.728 0.128,0.512 0.224,1.056 0.256,1.6 0.096,1.856 -0.576,3.36 -2.272,4.224 l -0.064,0.032 z m 5.088,22.592 c 0.192,-1.184 0.256,-2.432 0.224,-3.648 0,-0.832 -0.224,-1.664 -0.48,-2.432 -0.192,-0.576 -0.384,-1.216 -0.64,-1.76 -0.32,-0.64 -0.768,-1.248 -1.568,-1.632 -0.288,-0.128 -0.512,-0.352 -0.768,-0.544 1.184,-0.992 2.176,-2.112 2.528,-3.936 0.448,-2.368 -0.096,-4.48 -0.704,-6.656 -0.128,-0.48 -0.352,-0.928 -0.576,-1.312 -0.192,-0.384 -0.416,-0.736 -0.608,-1.152 -0.704,-1.568 -2.304,-2.624 -4.032,-2.464 -0.544,0.064 -1.056,0.704 -0.992,1.216 0.16,1.792 0.416,3.584 0.352,5.408 -0.128,3.04 0,6.08 0.032,9.152 0,0.512 0.128,1.056 0.096,1.568 -0.032,1.408 -0.16,2.848 -0.16,4.256 -0.032,1.632 0.064,3.296 0.064,4.928 -0.032,1.76 -0.096,3.52 -0.16,5.248 -0.032,0.832 0.448,1.728 1.6,1.408 0.608,-0.16 1.44,-0.416 1.952,-0.96 1.728,-1.824 3.36,-3.936 3.84,-6.688 z"
         style="font-style:normal;font-variant:normal;font-weight:normal;font-stretch:normal;font-size:32px;font-family:'The Skinny';-inkscape-font-specification:'The Skinny';text-align:center;text-anchor:middle;stroke-width:0.9292295"
         id="path2781" />
      <path
         d="m 385.95074,342.28642 c 0.096,1.408 0.416,2.816 0.448,4.224 0.064,1.792 -0.032,3.584 -0.064,5.376 -0.032,1.856 0.064,3.712 -0.128,5.536 -0.192,1.568 -0.224,3.168 -0.352,4.736 -0.096,1.568 -0.224,3.104 -0.672,4.576 -0.064,0.256 -0.128,0.512 -0.224,0.768 -0.064,0.256 -0.128,0.48 -0.224,0.704 -0.064,0.096 -0.128,0.288 -0.224,0.416 0.032,0 0.032,0.032 0.064,0.064 -0.384,-0.096 -0.704,-0.352 -0.8,-0.512 -0.32,-0.544 -0.48,-1.248 -0.608,-1.984 -0.384,-2.496 -0.736,-4.992 -1.12,-7.52 0,-2.336 -0.096,-4.704 0.064,-7.072 0.224,-2.816 0.608,-5.6 1.088,-8.384 0.224,-1.216 0.544,-2.336 1.408,-3.136 0.096,-0.064 0.064,-0.16 0.096,-0.096 0.064,0.128 0.16,0.224 0.224,0.288 0.096,0.064 0.16,0.128 0.224,0.192 0.544,0.448 0.768,1.024 0.8,1.824 z m 2.656,11.232 c 0.032,-1.088 0.032,-2.176 0.032,-3.232 0,-1.76 0.064,-3.52 0,-5.28 -0.032,-1.088 -0.352,-2.144 -0.416,-3.2 -0.064,-1.536 -0.8,-2.656 -1.824,-3.552 -0.608,-0.576 -2.656,-0.832 -3.296,0.064 -0.544,0.768 -1.152,1.664 -1.504,2.624 -0.416,1.088 -0.672,2.272 -0.896,3.424 -0.256,1.248 -0.512,2.528 -0.608,3.776 -0.16,1.952 -0.224,3.936 -0.224,5.888 0,2.08 0.064,4.192 0.192,6.272 0.064,0.992 0.256,1.952 0.416,2.944 h -0.128 c 0.384,1.984 0.608,3.36 0.864,4.704 0.096,0.512 0.288,1.088 0.576,1.568 0.64,1.12 2.048,1.664 3.104,1.472 1.248,-0.224 1.856,-1.216 2.08,-2.208 0.32,-1.344 0.672,-2.688 0.832,-4.064 0.224,-1.76 0.32,-3.52 0.448,-5.312 0.128,-1.952 0.256,-3.936 0.352,-5.888 z"
         style="font-style:normal;font-variant:normal;font-weight:normal;font-stretch:normal;font-size:32px;font-family:'The Skinny';-inkscape-font-specification:'The Skinny';text-align:center;text-anchor:middle;stroke-width:0.9292295"
         id="path2783" />
      <path
         d="m 397.14324,357.71042 c 0,0.16 0,0.352 -0.032,0.512 -0.192,2.272 -0.32,4.544 -0.608,6.784 -0.096,0.64 -0.224,1.248 -0.416,1.824 -0.16,0.48 -0.288,0.928 -0.448,1.408 -0.032,-0.096 -0.032,-0.192 -0.064,-0.32 -0.064,-0.32 -0.064,-0.64 -0.16,-0.96 -0.672,-2.464 -0.736,-5.056 -0.896,-7.584 -0.128,-2.368 0.064,-4.768 0.096,-7.136 0.032,-1.568 0.032,-3.136 0.032,-4.704 0.032,-2.816 0.096,-5.632 0.096,-8.448 0,-0.48 -0.128,-1.344 -1.12,-1.344 -0.576,0 -0.896,0.384 -0.992,0.736 -0.064,0.16 -0.064,0.32 -0.064,0.416 0,0.064 0,0.128 0,0.192 -0.032,0.288 0,0.576 0,0.864 0,0.224 0.032,0.448 0.032,0.672 -0.032,1.984 -0.064,3.968 -0.096,5.984 0,0.544 -0.096,1.088 -0.096,1.632 -0.032,1.696 0,3.424 -0.032,5.152 -0.064,1.952 -0.256,3.936 -0.192,5.888 0.096,2.144 0.288,4.288 0.576,6.432 0.192,1.6 0.352,3.136 1.28,4.544 0.672,0.992 2.944,1.12 3.52,-0.192 0.32,-0.768 0.608,-1.568 0.8,-2.368 0.224,-0.992 0.32,-1.984 0.448,-2.976 0.16,-1.216 0.288,-2.4 0.352,-3.584 0.16,-2.944 0.256,-5.888 0.384,-8.832 0.096,-2.464 0.224,-4.96 0.352,-7.456 0.096,-1.696 0.16,-3.36 0.288,-5.056 0.032,-0.576 0,-1.504 -1.184,-1.6 -1.152,-0.096 -1.28,0.736 -1.312,1.408 -0.032,1.696 -0.096,3.392 -0.16,5.088 -0.064,1.216 -0.16,2.464 -0.192,3.68 -0.032,1.12 0.064,2.272 0.032,3.392 -0.064,1.792 -0.192,3.552 -0.32,5.952 z"
         style="font-style:normal;font-variant:normal;font-weight:normal;font-stretch:normal;font-size:32px;font-family:'The Skinny';-inkscape-font-specification:'The Skinny';text-align:center;text-anchor:middle;stroke-width:0.9292295"
         id="path2785" />
      <path
         d="m 406.91374,340.07842 c 0.096,0.512 0.16,1.024 0.16,1.504 0,1.888 -0.064,3.776 -0.064,5.632 0,1.344 0.064,2.72 0.128,4.064 0.096,2.368 0.288,4.736 0.32,7.104 0.032,2.784 0,5.536 -0.032,8.32 0,0.992 0,2.016 -0.032,3.04 0,0.768 0.576,1.504 1.504,1.216 0.48,-0.128 0.96,-0.736 0.992,-1.248 0.032,-0.832 -0.064,-1.664 -0.064,-2.528 -0.032,-2.784 0,-5.6 -0.064,-8.384 -0.032,-1.504 -0.128,-2.976 -0.192,-4.48 -0.064,-1.76 -0.16,-3.552 -0.16,-5.344 -0.032,-2.912 0,-5.824 0,-8.8 0.512,0.032 1.024,0.032 1.568,0.064 0.416,0 1.568,-0.064 1.504,-1.312 -0.032,-1.152 -1.024,-1.216 -1.536,-1.184 -0.736,0.064 -1.44,0.064 -2.176,0.064 -0.736,0 -1.824,-0.032 -2.752,0 -1.312,0.032 -2.24,0.608 -2.272,0.896 -0.064,0.928 0.416,1.28 1.504,1.312 0.576,0 1.12,0 1.664,0.064 z"
         style="font-style:normal;font-variant:normal;font-weight:normal;font-stretch:normal;font-size:32px;font-family:'The Skinny';-inkscape-font-specification:'The Skinny';text-align:center;text-anchor:middle;stroke-width:0.9292295"
         id="path2787" />
      <path
         d="m 430.01324,342.28642 c 0.096,1.408 0.416,2.816 0.448,4.224 0.064,1.792 -0.032,3.584 -0.064,5.376 -0.032,1.856 0.064,3.712 -0.128,5.536 -0.192,1.568 -0.224,3.168 -0.352,4.736 -0.096,1.568 -0.224,3.104 -0.672,4.576 -0.064,0.256 -0.128,0.512 -0.224,0.768 -0.064,0.256 -0.128,0.48 -0.224,0.704 -0.064,0.096 -0.128,0.288 -0.224,0.416 0.032,0 0.032,0.032 0.064,0.064 -0.384,-0.096 -0.704,-0.352 -0.8,-0.512 -0.32,-0.544 -0.48,-1.248 -0.608,-1.984 -0.384,-2.496 -0.736,-4.992 -1.12,-7.52 0,-2.336 -0.096,-4.704 0.064,-7.072 0.224,-2.816 0.608,-5.6 1.088,-8.384 0.224,-1.216 0.544,-2.336 1.408,-3.136 0.096,-0.064 0.064,-0.16 0.096,-0.096 0.064,0.128 0.16,0.224 0.224,0.288 0.096,0.064 0.16,0.128 0.224,0.192 0.544,0.448 0.768,1.024 0.8,1.824 z m 2.656,11.232 c 0.032,-1.088 0.032,-2.176 0.032,-3.232 0,-1.76 0.064,-3.52 0,-5.28 -0.032,-1.088 -0.352,-2.144 -0.416,-3.2 -0.064,-1.536 -0.8,-2.656 -1.824,-3.552 -0.608,-0.576 -2.656,-0.832 -3.296,0.064 -0.544,0.768 -1.152,1.664 -1.504,2.624 -0.416,1.088 -0.672,2.272 -0.896,3.424 -0.256,1.248 -0.512,2.528 -0.608,3.776 -0.16,1.952 -0.224,3.936 -0.224,5.888 0,2.08 0.064,4.192 0.192,6.272 0.064,0.992 0.256,1.952 0.416,2.944 h -0.128 c 0.384,1.984 0.608,3.36 0.864,4.704 0.096,0.512 0.288,1.088 0.576,1.568 0.64,1.12 2.048,1.664 3.104,1.472 1.248,-0.224 1.856,-1.216 2.08,-2.208 0.32,-1.344 0.672,-2.688 0.832,-4.064 0.224,-1.76 0.32,-3.52 0.448,-5.312 0.128,-1.952 0.256,-3.936 0.352,-5.888 z"
         style="font-style:normal;font-variant:normal;font-weight:normal;font-stretch:normal;font-size:32px;font-family:'The Skinny';-inkscape-font-specification:'The Skinny';text-align:center;text-anchor:middle;stroke-width:0.9292295"
         id="path2789" />
      <path
         d="m 440.40574,341.32642 c 0.576,1.952 0.928,3.744 0.352,5.568 -0.192,0.608 -0.48,0.896 -0.992,0.992 -0.224,0.064 -0.448,0.128 -0.672,0.16 l 0.544,-7.616 c 0.384,0.224 0.64,0.48 0.768,0.896 z m -1.088,9.088 c 2.144,-0.48 3.584,-1.76 3.904,-4.096 0.288,-1.952 0,-3.808 -0.576,-5.6 -0.576,-1.792 -1.92,-2.528 -3.456,-2.88 -1.472,-0.32 -2.176,0.384 -1.856,1.792 0.064,0.352 0.096,0.768 0.064,1.184 -0.064,1.568 -0.192,3.136 -0.256,4.704 -0.096,2.272 -0.192,4.512 -0.288,6.784 -0.064,1.984 -0.128,4 -0.192,5.984 -0.064,1.856 -0.192,3.744 -0.256,5.6 -0.064,1.472 -0.128,2.944 -0.16,4.416 0,0.576 -0.032,1.184 0.096,1.76 0.128,0.576 0.864,0.992 1.312,0.96 0.608,-0.032 1.088,-0.768 1.12,-1.184 0.032,-1.088 0,-2.144 0,-3.2 0,-2.464 -0.032,-4.928 0.032,-7.392 0.032,-2.08 0.16,-4.16 0.224,-6.272 0.032,-0.8 0.032,-1.632 0.032,-2.464 0.096,-0.032 0.16,-0.064 0.256,-0.096 z"
         style="font-style:normal;font-variant:normal;font-weight:normal;font-stretch:normal;font-size:32px;font-family:'The Skinny';-inkscape-font-specification:'The Skinny';text-align:center;text-anchor:middle;stroke-width:0.9292295"
         id="path2791" />
      <path
         d="m 450.53074,341.32642 c 0.576,1.952 0.928,3.744 0.352,5.568 -0.192,0.608 -0.48,0.896 -0.992,0.992 -0.224,0.064 -0.448,0.128 -0.672,0.16 l 0.544,-7.616 c 0.384,0.224 0.64,0.48 0.768,0.896 z m -1.088,9.088 c 2.144,-0.48 3.584,-1.76 3.904,-4.096 0.288,-1.952 0,-3.808 -0.576,-5.6 -0.576,-1.792 -1.92,-2.528 -3.456,-2.88 -1.472,-0.32 -2.176,0.384 -1.856,1.792 0.064,0.352 0.096,0.768 0.064,1.184 -0.064,1.568 -0.192,3.136 -0.256,4.704 -0.096,2.272 -0.192,4.512 -0.288,6.784 -0.064,1.984 -0.128,4 -0.192,5.984 -0.064,1.856 -0.192,3.744 -0.256,5.6 -0.064,1.472 -0.128,2.944 -0.16,4.416 0,0.576 -0.032,1.184 0.096,1.76 0.128,0.576 0.864,0.992 1.312,0.96 0.608,-0.032 1.088,-0.768 1.12,-1.184 0.032,-1.088 0,-2.144 0,-3.2 0,-2.464 -0.032,-4.928 0.032,-7.392 0.032,-2.08 0.16,-4.16 0.224,-6.272 0.032,-0.8 0.032,-1.632 0.032,-2.464 0.096,-0.032 0.16,-0.064 0.256,-0.096 z"
         style="font-style:normal;font-variant:normal;font-weight:normal;font-stretch:normal;font-size:32px;font-family:'The Skinny';-inkscape-font-specification:'The Skinny';text-align:center;text-anchor:middle;stroke-width:0.9292295"
         id="path2793" />
      <path
         d="m 462.57574,342.28642 c 0.096,1.408 0.416,2.816 0.448,4.224 0.064,1.792 -0.032,3.584 -0.064,5.376 -0.032,1.856 0.064,3.712 -0.128,5.536 -0.192,1.568 -0.224,3.168 -0.352,4.736 -0.096,1.568 -0.224,3.104 -0.672,4.576 -0.064,0.256 -0.128,0.512 -0.224,0.768 -0.064,0.256 -0.128,0.48 -0.224,0.704 -0.064,0.096 -0.128,0.288 -0.224,0.416 0.032,0 0.032,0.032 0.064,0.064 -0.384,-0.096 -0.704,-0.352 -0.8,-0.512 -0.32,-0.544 -0.48,-1.248 -0.608,-1.984 -0.384,-2.496 -0.736,-4.992 -1.12,-7.52 0,-2.336 -0.096,-4.704 0.064,-7.072 0.224,-2.816 0.608,-5.6 1.088,-8.384 0.224,-1.216 0.544,-2.336 1.408,-3.136 0.096,-0.064 0.064,-0.16 0.096,-0.096 0.064,0.128 0.16,0.224 0.224,0.288 0.096,0.064 0.16,0.128 0.224,0.192 0.544,0.448 0.768,1.024 0.8,1.824 z m 2.656,11.232 c 0.032,-1.088 0.032,-2.176 0.032,-3.232 0,-1.76 0.064,-3.52 0,-5.28 -0.032,-1.088 -0.352,-2.144 -0.416,-3.2 -0.064,-1.536 -0.8,-2.656 -1.824,-3.552 -0.608,-0.576 -2.656,-0.832 -3.296,0.064 -0.544,0.768 -1.152,1.664 -1.504,2.624 -0.416,1.088 -0.672,2.272 -0.896,3.424 -0.256,1.248 -0.512,2.528 -0.608,3.776 -0.16,1.952 -0.224,3.936 -0.224,5.888 0,2.08 0.064,4.192 0.192,6.272 0.064,0.992 0.256,1.952 0.416,2.944 h -0.128 c 0.384,1.984 0.608,3.36 0.864,4.704 0.096,0.512 0.288,1.088 0.576,1.568 0.64,1.12 2.048,1.664 3.104,1.472 1.248,-0.224 1.856,-1.216 2.08,-2.208 0.32,-1.344 0.672,-2.688 0.832,-4.064 0.224,-1.76 0.32,-3.52 0.448,-5.312 0.128,-1.952 0.256,-3.936 0.352,-5.888 z"
         style="font-style:normal;font-variant:normal;font-weight:normal;font-stretch:normal;font-size:32px;font-family:'The Skinny';-inkscape-font-specification:'The Skinny';text-align:center;text-anchor:middle;stroke-width:0.9292295"
         id="path2795" />
      <path
         d="m 477.03224,359.79042 c -0.096,-0.48 -0.192,-0.928 -0.288,-1.408 -0.672,-3.104 -1.44,-6.144 -2.176,-9.216 -0.544,-2.208 -1.024,-4.448 -1.632,-6.624 -0.32,-1.216 -0.864,-2.368 -1.312,-3.552 -0.384,-1.056 -1.312,-1.024 -1.888,-0.896 -1.152,0.288 -0.96,1.344 -0.832,1.728 0.032,0.096 0,0.32 0.032,0.416 0.032,1.216 0.032,2.432 0.096,3.648 0.032,0.768 0.192,1.536 0.192,2.336 0.032,1.024 -0.032,2.048 -0.032,3.072 0,2.08 -0.032,4.128 0.032,6.208 0.032,0.928 0.096,6.464 0.128,7.776 0,0.96 0.096,1.952 0.16,2.944 0.032,0.96 0.064,1.92 -0.128,2.848 -0.128,0.704 0.832,1.216 1.184,1.216 0.8,0 1.344,-0.544 1.312,-1.44 -0.096,-2.08 -0.128,-4.192 -0.192,-6.272 -0.064,-1.76 -0.224,-3.488 -0.256,-5.248 -0.032,-2.4 -0.032,-4.832 -0.032,-7.264 0,-0.64 -0.032,-1.28 -0.064,-1.92 -0.032,-1.28 -0.032,-2.528 -0.064,-3.776 0,-0.48 0,-0.928 -0.032,-1.376 -0.032,-0.448 -0.096,-0.864 -0.288,-1.248 l -0.576,0.288 c 0.128,0.256 0.256,0.544 0.352,0.832 0.416,1.504 0.896,2.976 1.248,4.48 0.512,2.08 0.928,4.16 1.376,6.272 0.16,0.832 0.32,1.664 0.512,2.496 0.16,0.672 0.416,1.344 0.576,2.016 0.416,2.016 0.864,4.032 1.184,6.048 0.288,1.728 0.448,3.488 0.64,5.216 0.096,0.928 0.864,1.568 1.6,1.632 0.8,0.096 1.504,-0.48 1.504,-1.632 0,-2.08 0,-4.16 0,-6.24 0,-1.568 0,-3.136 0,-4.672 -0.032,-1.632 -0.16,-3.264 -0.16,-4.896 -0.032,-2.432 -0.032,-4.896 0,-7.36 0,-2.4 0.128,-4.8 0.128,-7.2 0,-0.352 -0.192,-0.608 -0.416,-0.896 -0.032,-0.032 -0.064,-0.064 -0.576,-0.832 -0.576,0.704 -0.608,0.768 -0.672,0.8 -0.256,0.256 -0.512,0.512 -0.544,0.928 -0.096,1.28 -0.128,2.56 -0.128,3.84 -0.032,2.432 -0.064,4.896 -0.032,7.36 0,1.888 0,3.776 0.032,5.664 0,0.832 0.128,1.696 0.128,2.56 0,0.448 -0.064,0.896 -0.096,1.344 z"
         style="font-style:normal;font-variant:normal;font-weight:normal;font-stretch:normal;font-size:32px;font-family:'The Skinny';-inkscape-font-specification:'The Skinny';text-align:center;text-anchor:middle;stroke-width:0.9292295"
         id="path2797" />
      <path
         d="m 485.86374,368.33442 c 0,-0.928 0,-1.856 0,-2.784 0.064,-3.2 0.096,-6.4 0.16,-9.6 0.032,-2.016 0.096,-4.032 0.128,-6.048 0.704,0 1.408,-0.064 2.112,-0.096 1.12,-0.032 1.216,-1.056 1.152,-1.504 -0.096,-0.672 -0.704,-1.088 -1.472,-0.928 -0.544,0.128 -1.12,0.16 -1.696,0.224 v -7.328 c 1.024,0 1.952,0 2.912,0 0.768,0 1.408,-0.448 1.408,-1.344 -0.032,-1.12 -1.056,-1.184 -1.44,-1.184 -1.152,0.032 -2.336,-0.032 -3.488,0.064 -0.576,0.032 -1.152,0.416 -1.504,0.8 -0.192,0.256 -0.224,0.608 -0.192,0.896 0,0.16 0.064,0.352 0.064,0.512 0,2.272 0.064,4.544 0.032,6.816 -0.032,2.112 -0.192,4.224 -0.224,6.304 -0.064,2.176 0,4.352 -0.032,6.528 0,1.44 -0.096,2.88 -0.128,4.352 -0.032,1.408 -0.064,2.848 -0.128,4.288 -0.032,0.448 -0.032,0.768 -0.032,1.024 0.064,0.704 0.352,1.152 1.12,1.312 0.224,0.064 0.544,0.096 0.96,0.128 0.192,0.032 0.352,0.064 0.544,0.096 0.608,0.064 1.248,0.16 1.856,0.16 0.32,0 0.576,-0.192 0.704,-0.256 0.096,-0.064 0.192,-0.16 0.832,-0.576 -0.416,-0.576 -0.448,-0.64 -0.448,-0.672 -0.064,-0.096 -0.096,-0.16 -0.128,-0.256 -0.16,-0.224 -0.384,-0.48 -0.672,-0.544 -0.736,-0.192 -1.568,-0.384 -2.4,-0.384 z"
         style="font-style:normal;font-variant:normal;font-weight:normal;font-stretch:normal;font-size:32px;font-family:'The Skinny';-inkscape-font-specification:'The Skinny';text-align:center;text-anchor:middle;stroke-width:0.9292295"
         id="path2799" />
      <path
         d="m 501.84474,359.79042 c -0.096,-0.48 -0.192,-0.928 -0.288,-1.408 -0.672,-3.104 -1.44,-6.144 -2.176,-9.216 -0.544,-2.208 -1.024,-4.448 -1.632,-6.624 -0.32,-1.216 -0.864,-2.368 -1.312,-3.552 -0.384,-1.056 -1.312,-1.024 -1.888,-0.896 -1.152,0.288 -0.96,1.344 -0.832,1.728 0.032,0.096 0,0.32 0.032,0.416 0.032,1.216 0.032,2.432 0.096,3.648 0.032,0.768 0.192,1.536 0.192,2.336 0.032,1.024 -0.032,2.048 -0.032,3.072 0,2.08 -0.032,4.128 0.032,6.208 0.032,0.928 0.096,6.464 0.128,7.776 0,0.96 0.096,1.952 0.16,2.944 0.032,0.96 0.064,1.92 -0.128,2.848 -0.128,0.704 0.832,1.216 1.184,1.216 0.8,0 1.344,-0.544 1.312,-1.44 -0.096,-2.08 -0.128,-4.192 -0.192,-6.272 -0.064,-1.76 -0.224,-3.488 -0.256,-5.248 -0.032,-2.4 -0.032,-4.832 -0.032,-7.264 0,-0.64 -0.032,-1.28 -0.064,-1.92 -0.032,-1.28 -0.032,-2.528 -0.064,-3.776 0,-0.48 0,-0.928 -0.032,-1.376 -0.032,-0.448 -0.096,-0.864 -0.288,-1.248 l -0.576,0.288 c 0.128,0.256 0.256,0.544 0.352,0.832 0.416,1.504 0.896,2.976 1.248,4.48 0.512,2.08 0.928,4.16 1.376,6.272 0.16,0.832 0.32,1.664 0.512,2.496 0.16,0.672 0.416,1.344 0.576,2.016 0.416,2.016 0.864,4.032 1.184,6.048 0.288,1.728 0.448,3.488 0.64,5.216 0.096,0.928 0.864,1.568 1.6,1.632 0.8,0.096 1.504,-0.48 1.504,-1.632 0,-2.08 0,-4.16 0,-6.24 0,-1.568 0,-3.136 0,-4.672 -0.032,-1.632 -0.16,-3.264 -0.16,-4.896 -0.032,-2.432 -0.032,-4.896 0,-7.36 0,-2.4 0.128,-4.8 0.128,-7.2 0,-0.352 -0.192,-0.608 -0.416,-0.896 -0.032,-0.032 -0.064,-0.064 -0.576,-0.832 -0.576,0.704 -0.608,0.768 -0.672,0.8 -0.256,0.256 -0.512,0.512 -0.544,0.928 -0.096,1.28 -0.128,2.56 -0.128,3.84 -0.032,2.432 -0.064,4.896 -0.032,7.36 0,1.888 0,3.776 0.032,5.664 0,0.832 0.128,1.696 0.128,2.56 0,0.448 -0.064,0.896 -0.096,1.344 z"
         style="font-style:normal;font-variant:normal;font-weight:normal;font-stretch:normal;font-size:32px;font-family:'The Skinny';-inkscape-font-specification:'The Skinny';text-align:center;text-anchor:middle;stroke-width:0.9292295"
         id="path2801" />
      <path
         d="m 511.47624,340.07842 c 0.096,0.512 0.16,1.024 0.16,1.504 0,1.888 -0.064,3.776 -0.064,5.632 0,1.344 0.064,2.72 0.128,4.064 0.096,2.368 0.288,4.736 0.32,7.104 0.032,2.784 0,5.536 -0.032,8.32 0,0.992 0,2.016 -0.032,3.04 0,0.768 0.576,1.504 1.504,1.216 0.48,-0.128 0.96,-0.736 0.992,-1.248 0.032,-0.832 -0.064,-1.664 -0.064,-2.528 -0.032,-2.784 0,-5.6 -0.064,-8.384 -0.032,-1.504 -0.128,-2.976 -0.192,-4.48 -0.064,-1.76 -0.16,-3.552 -0.16,-5.344 -0.032,-2.912 0,-5.824 0,-8.8 0.512,0.032 1.024,0.032 1.568,0.064 0.416,0 1.568,-0.064 1.504,-1.312 -0.032,-1.152 -1.024,-1.216 -1.536,-1.184 -0.736,0.064 -1.44,0.064 -2.176,0.064 -0.736,0 -1.824,-0.032 -2.752,0 -1.312,0.032 -2.24,0.608 -2.272,0.896 -0.064,0.928 0.416,1.28 1.504,1.312 0.576,0 1.12,0 1.664,0.064 z"
         style="font-style:normal;font-variant:normal;font-weight:normal;font-stretch:normal;font-size:32px;font-family:'The Skinny';-inkscape-font-specification:'The Skinny';text-align:center;text-anchor:middle;stroke-width:0.9292295"
         id="path2803" />
      <path
         d="m 529.23174,365.10242 c 0.096,-0.96 0,-1.984 0.064,-2.976 0.16,-2.944 -0.224,-5.792 -1.504,-8.544 -0.512,-1.056 -1.152,-1.984 -1.792,-2.88 -0.608,-0.864 -1.28,-1.696 -1.888,-2.592 -0.16,-0.224 -0.32,-0.48 -0.48,-0.704 -0.448,-0.672 -0.768,-1.248 -0.704,-1.984 0.032,-0.704 0.096,-1.408 0.192,-2.112 0.096,-0.512 0.096,-1.056 0.192,-1.568 0.096,-0.512 0.256,-0.96 0.576,-1.344 0.32,-0.448 0.512,-0.48 0.736,-0.064 0.192,0.352 0.352,0.768 0.48,1.184 0.16,0.448 0.288,0.896 0.48,1.344 0.096,0.288 0.192,0.544 0.384,0.8 0.32,0.352 1.376,0.288 1.536,-0.384 0.064,-0.288 0.064,-0.64 0,-0.96 -0.032,-0.192 -0.096,-0.416 -0.16,-0.608 -0.064,-0.16 -0.096,-0.288 -0.096,-0.352 -0.096,-1.408 -0.672,-2.688 -2.08,-3.328 -0.576,-0.288 -1.792,-0.48 -2.464,0.032 -0.704,0.544 -1.056,1.536 -1.248,2.24 -0.288,1.216 -0.416,2.528 -0.608,3.776 -0.032,0.288 -0.096,0.608 -0.16,0.896 -0.064,0.32 -0.096,0.672 0,1.024 0.448,1.728 1.408,3.2 2.432,4.512 0.864,1.12 1.92,2.24 2.464,3.584 0.192,0.512 0.448,1.024 0.672,1.536 0.224,0.48 0.384,0.96 0.48,1.408 0.448,2.368 0.544,4.768 0.352,7.2 -0.096,1.504 -0.352,2.816 -1.216,3.904 -0.48,0.608 -0.832,0.64 -1.088,0.512 -0.832,-0.48 -1.408,-1.152 -1.6,-2.048 -0.192,-0.768 -0.256,-1.568 -0.384,-2.336 -0.064,-0.48 -0.384,-1.216 -1.344,-1.056 -0.896,0.16 -1.056,0.864 -0.928,1.472 0.16,0.64 0.192,1.312 0.352,1.952 0.32,1.216 0.736,2.56 1.984,3.456 0.448,0.32 0.768,0.672 1.312,0.832 1.76,0.448 2.912,-0.64 3.648,-1.6 1.024,-1.28 1.248,-2.848 1.408,-4.224 z"
         style="font-style:normal;font-variant:normal;font-weight:normal;font-stretch:normal;font-size:32px;font-family:'The Skinny';-inkscape-font-specification:'The Skinny';text-align:center;text-anchor:middle;stroke-width:0.9292295"
         id="path2805" />
      <path
         d="m 545.19374,344.43042 c 0.832,4.672 1.12,9.44 2.208,14.08 l -3.968,-0.192 z m 5.728,25.888 c 0.256,-0.224 0.256,-0.544 0.256,-0.64 0,-0.128 -0.032,-0.256 -0.032,-0.352 -0.096,-0.576 -0.192,-1.152 -0.288,-1.76 -0.192,-1.504 -0.352,-3.008 -0.576,-4.544 -0.32,-2.208 -0.704,-4.448 -1.088,-6.656 -0.352,-1.984 -0.8,-3.936 -1.12,-5.92 -0.288,-1.792 -0.448,-3.584 -0.672,-5.376 -0.256,-1.824 -0.512,-3.648 -0.864,-5.472 -0.032,-0.32 -0.192,-0.608 -0.32,-0.832 -0.128,-0.224 -0.256,-0.448 -0.736,-1.408 -0.8,0.672 -0.96,0.8 -1.088,0.896 -0.128,0.096 -0.416,0.32 -0.512,0.64 -0.224,0.8 -0.352,1.632 -0.48,2.464 -0.096,0.8 -0.128,1.6 -0.224,2.368 -0.288,1.952 -0.608,3.904 -0.864,5.856 -0.256,2.144 -0.448,4.256 -0.704,6.4 -0.192,1.664 -0.448,3.296 -0.576,4.96 -0.16,2.176 -0.224,4.384 -0.288,6.56 -0.032,0.896 0,1.792 0,3.2 1.76,0.416 2.176,-0.512 2.208,-1.216 0.032,-0.832 0,-1.632 0.032,-2.432 0.032,-1.632 0.096,-3.232 0.16,-4.864 0.032,-0.544 0.096,-1.088 0.128,-1.6 1.472,-0.32 2.912,-0.128 4.416,0.256 0.032,0.032 0.096,0.032 0.096,0.064 0.256,1.888 0.512,3.808 0.704,5.728 0.128,1.056 0.16,2.112 0.256,3.168 0.032,0.32 0.192,0.544 0.288,0.64 0.064,0.096 0.16,0.192 0.576,0.832 0.64,-0.448 0.768,-0.512 0.896,-0.608 0.128,-0.064 0.288,-0.192 0.416,-0.352 z"
         style="font-style:normal;font-variant:normal;font-weight:normal;font-stretch:normal;font-size:32px;font-family:'The Skinny';-inkscape-font-specification:'The Skinny';text-align:center;text-anchor:middle;stroke-width:0.9292295"
         id="path2807" />
      <path
         d="m 562.49424,366.63842 c 0.224,-0.864 0.416,-1.76 0.64,-2.624 0.192,-0.736 -0.224,-1.472 -1.12,-1.536 -0.864,-0.064 -1.312,0.448 -1.408,1.216 -0.064,0.704 -0.768,5.92 -2.016,4.544 -0.768,-0.832 -1.024,-1.856 -1.152,-3.04 -0.16,-1.632 -0.256,-3.296 -0.384,-4.928 -0.064,-1.12 -0.16,-2.272 -0.16,-3.424 0,-1.152 0.128,-2.304 0.128,-3.456 0.032,-1.344 -0.064,-2.72 0.032,-4.032 0.16,-1.792 0.384,-3.552 0.704,-5.28 0.192,-1.12 0.544,-2.24 0.992,-3.328 0.064,-0.224 0.416,-0.48 0.608,-0.512 0.032,-0.032 0.064,0.064 0.096,0.128 0.16,0.096 0.256,0.256 0.384,0.384 0.128,0.128 0.192,0.448 0.224,0.608 0.128,0.64 0.192,1.312 0.352,2.304 1.824,0.672 2.016,-0.768 1.984,-1.152 -0.064,-0.864 -0.16,-1.888 -0.48,-2.816 -0.224,-0.64 -0.64,-1.664 -1.856,-1.888 -1.088,-0.192 -2.656,0.032 -3.104,1.216 -0.544,1.44 -1.248,2.848 -1.536,4.352 -0.416,2.016 -0.48,4.096 -0.64,6.144 -0.096,1.152 0,2.336 -0.032,3.488 -0.064,1.472 -0.224,2.912 -0.192,4.384 0.032,1.568 0.224,3.136 0.32,4.672 0.16,2.336 0.224,4.576 1.216,6.72 0.512,1.088 1.216,1.888 2.432,2.176 1.248,0.32 2.432,-0.576 3.008,-1.632 0.448,-0.864 0.736,-1.792 0.96,-2.688 z"
         style="font-style:normal;font-variant:normal;font-weight:normal;font-stretch:normal;font-size:32px;font-family:'The Skinny';-inkscape-font-specification:'The Skinny';text-align:center;text-anchor:middle;stroke-width:0.9292295"
         id="path2809" />
      <path
         d="m 569.35124,340.07842 c 0.096,0.512 0.16,1.024 0.16,1.504 0,1.888 -0.064,3.776 -0.064,5.632 0,1.344 0.064,2.72 0.128,4.064 0.096,2.368 0.288,4.736 0.32,7.104 0.032,2.784 0,5.536 -0.032,8.32 0,0.992 0,2.016 -0.032,3.04 0,0.768 0.576,1.504 1.504,1.216 0.48,-0.128 0.96,-0.736 0.992,-1.248 0.032,-0.832 -0.064,-1.664 -0.064,-2.528 -0.032,-2.784 0,-5.6 -0.064,-8.384 -0.032,-1.504 -0.128,-2.976 -0.192,-4.48 -0.064,-1.76 -0.16,-3.552 -0.16,-5.344 -0.032,-2.912 0,-5.824 0,-8.8 0.512,0.032 1.024,0.032 1.568,0.064 0.416,0 1.568,-0.064 1.504,-1.312 -0.032,-1.152 -1.024,-1.216 -1.536,-1.184 -0.736,0.064 -1.44,0.064 -2.176,0.064 -0.736,0 -1.824,-0.032 -2.752,0 -1.312,0.032 -2.24,0.608 -2.272,0.896 -0.064,0.928 0.416,1.28 1.504,1.312 0.576,0 1.12,0 1.664,0.064 z"
         style="font-style:normal;font-variant:normal;font-weight:normal;font-stretch:normal;font-size:32px;font-family:'The Skinny';-inkscape-font-specification:'The Skinny';text-align:center;text-anchor:middle;stroke-width:0.9292295"
         id="path2811" />
      <path
         d="m 581.28274,341.99842 c -0.128,-1.376 -0.192,-2.112 -0.256,-2.848 -0.032,-0.256 -0.032,-0.48 -0.096,-0.736 -0.16,-0.416 -0.544,-0.672 -1.056,-0.672 -1.184,0 -1.28,1.024 -1.28,1.536 0.064,1.856 0.16,3.744 0.128,5.6 -0.032,1.952 -0.192,3.904 -0.256,5.888 -0.032,1.728 -0.032,3.456 -0.032,5.184 0,2.368 0.032,4.768 0.032,7.168 0,2.144 -0.032,4.32 -0.096,6.464 -0.032,0.832 0.448,1.408 1.248,1.44 0.672,0 1.216,-0.832 1.216,-1.28 0.032,-2.08 -0.032,-4.128 -0.064,-6.176 -0.032,-0.864 -0.128,-1.696 -0.128,-2.528 0.032,-1.888 0.128,-3.776 0.16,-5.664 0.032,-2.144 0,-4.256 0.064,-6.368 0.064,-2.528 0.192,-5.024 0.352,-8.416 l -1.472,1.536 z"
         style="font-style:normal;font-variant:normal;font-weight:normal;font-stretch:normal;font-size:32px;font-family:'The Skinny';-inkscape-font-specification:'The Skinny';text-align:center;text-anchor:middle;stroke-width:0.9292295"
         id="path2813" />
      <path
         d="m 591.20074,342.28642 c 0.096,1.408 0.416,2.816 0.448,4.224 0.064,1.792 -0.032,3.584 -0.064,5.376 -0.032,1.856 0.064,3.712 -0.128,5.536 -0.192,1.568 -0.224,3.168 -0.352,4.736 -0.096,1.568 -0.224,3.104 -0.672,4.576 -0.064,0.256 -0.128,0.512 -0.224,0.768 -0.064,0.256 -0.128,0.48 -0.224,0.704 -0.064,0.096 -0.128,0.288 -0.224,0.416 0.032,0 0.032,0.032 0.064,0.064 -0.384,-0.096 -0.704,-0.352 -0.8,-0.512 -0.32,-0.544 -0.48,-1.248 -0.608,-1.984 -0.384,-2.496 -0.736,-4.992 -1.12,-7.52 0,-2.336 -0.096,-4.704 0.064,-7.072 0.224,-2.816 0.608,-5.6 1.088,-8.384 0.224,-1.216 0.544,-2.336 1.408,-3.136 0.096,-0.064 0.064,-0.16 0.096,-0.096 0.064,0.128 0.16,0.224 0.224,0.288 0.096,0.064 0.16,0.128 0.224,0.192 0.544,0.448 0.768,1.024 0.8,1.824 z m 2.656,11.232 c 0.032,-1.088 0.032,-2.176 0.032,-3.232 0,-1.76 0.064,-3.52 0,-5.28 -0.032,-1.088 -0.352,-2.144 -0.416,-3.2 -0.064,-1.536 -0.8,-2.656 -1.824,-3.552 -0.608,-0.576 -2.656,-0.832 -3.296,0.064 -0.544,0.768 -1.152,1.664 -1.504,2.624 -0.416,1.088 -0.672,2.272 -0.896,3.424 -0.256,1.248 -0.512,2.528 -0.608,3.776 -0.16,1.952 -0.224,3.936 -0.224,5.888 0,2.08 0.064,4.192 0.192,6.272 0.064,0.992 0.256,1.952 0.416,2.944 h -0.128 c 0.384,1.984 0.608,3.36 0.864,4.704 0.096,0.512 0.288,1.088 0.576,1.568 0.64,1.12 2.048,1.664 3.104,1.472 1.248,-0.224 1.856,-1.216 2.08,-2.208 0.32,-1.344 0.672,-2.688 0.832,-4.064 0.224,-1.76 0.32,-3.52 0.448,-5.312 0.128,-1.952 0.256,-3.936 0.352,-5.888 z"
         style="font-style:normal;font-variant:normal;font-weight:normal;font-stretch:normal;font-size:32px;font-family:'The Skinny';-inkscape-font-specification:'The Skinny';text-align:center;text-anchor:middle;stroke-width:0.9292295"
         id="path2815" />
      <path
         d="m 605.65724,359.79042 c -0.096,-0.48 -0.192,-0.928 -0.288,-1.408 -0.672,-3.104 -1.44,-6.144 -2.176,-9.216 -0.544,-2.208 -1.024,-4.448 -1.632,-6.624 -0.32,-1.216 -0.864,-2.368 -1.312,-3.552 -0.384,-1.056 -1.312,-1.024 -1.888,-0.896 -1.152,0.288 -0.96,1.344 -0.832,1.728 0.032,0.096 0,0.32 0.032,0.416 0.032,1.216 0.032,2.432 0.096,3.648 0.032,0.768 0.192,1.536 0.192,2.336 0.032,1.024 -0.032,2.048 -0.032,3.072 0,2.08 -0.032,4.128 0.032,6.208 0.032,0.928 0.096,6.464 0.128,7.776 0,0.96 0.096,1.952 0.16,2.944 0.032,0.96 0.064,1.92 -0.128,2.848 -0.128,0.704 0.832,1.216 1.184,1.216 0.8,0 1.344,-0.544 1.312,-1.44 -0.096,-2.08 -0.128,-4.192 -0.192,-6.272 -0.064,-1.76 -0.224,-3.488 -0.256,-5.248 -0.032,-2.4 -0.032,-4.832 -0.032,-7.264 0,-0.64 -0.032,-1.28 -0.064,-1.92 -0.032,-1.28 -0.032,-2.528 -0.064,-3.776 0,-0.48 0,-0.928 -0.032,-1.376 -0.032,-0.448 -0.096,-0.864 -0.288,-1.248 l -0.576,0.288 c 0.128,0.256 0.256,0.544 0.352,0.832 0.416,1.504 0.896,2.976 1.248,4.48 0.512,2.08 0.928,4.16 1.376,6.272 0.16,0.832 0.32,1.664 0.512,2.496 0.16,0.672 0.416,1.344 0.576,2.016 0.416,2.016 0.864,4.032 1.184,6.048 0.288,1.728 0.448,3.488 0.64,5.216 0.096,0.928 0.864,1.568 1.6,1.632 0.8,0.096 1.504,-0.48 1.504,-1.632 0,-2.08 0,-4.16 0,-6.24 0,-1.568 0,-3.136 0,-4.672 -0.032,-1.632 -0.16,-3.264 -0.16,-4.896 -0.032,-2.432 -0.032,-4.896 0,-7.36 0,-2.4 0.128,-4.8 0.128,-7.2 0,-0.352 -0.192,-0.608 -0.416,-0.896 -0.032,-0.032 -0.064,-0.064 -0.576,-0.832 -0.576,0.704 -0.608,0.768 -0.672,0.8 -0.256,0.256 -0.512,0.512 -0.544,0.928 -0.096,1.28 -0.128,2.56 -0.128,3.84 -0.032,2.432 -0.064,4.896 -0.032,7.36 0,1.888 0,3.776 0.032,5.664 0,0.832 0.128,1.696 0.128,2.56 0,0.448 -0.064,0.896 -0.096,1.344 z"
         style="font-style:normal;font-variant:normal;font-weight:normal;font-stretch:normal;font-size:32px;font-family:'The Skinny';-inkscape-font-specification:'The Skinny';text-align:center;text-anchor:middle;stroke-width:0.9292295"
         id="path2817" />
      <path
         d="m 620.85674,365.10242 c 0.096,-0.96 0,-1.984 0.064,-2.976 0.16,-2.944 -0.224,-5.792 -1.504,-8.544 -0.512,-1.056 -1.152,-1.984 -1.792,-2.88 -0.608,-0.864 -1.28,-1.696 -1.888,-2.592 -0.16,-0.224 -0.32,-0.48 -0.48,-0.704 -0.448,-0.672 -0.768,-1.248 -0.704,-1.984 0.032,-0.704 0.096,-1.408 0.192,-2.112 0.096,-0.512 0.096,-1.056 0.192,-1.568 0.096,-0.512 0.256,-0.96 0.576,-1.344 0.32,-0.448 0.512,-0.48 0.736,-0.064 0.192,0.352 0.352,0.768 0.48,1.184 0.16,0.448 0.288,0.896 0.48,1.344 0.096,0.288 0.192,0.544 0.384,0.8 0.32,0.352 1.376,0.288 1.536,-0.384 0.064,-0.288 0.064,-0.64 0,-0.96 -0.032,-0.192 -0.096,-0.416 -0.16,-0.608 -0.064,-0.16 -0.096,-0.288 -0.096,-0.352 -0.096,-1.408 -0.672,-2.688 -2.08,-3.328 -0.576,-0.288 -1.792,-0.48 -2.464,0.032 -0.704,0.544 -1.056,1.536 -1.248,2.24 -0.288,1.216 -0.416,2.528 -0.608,3.776 -0.032,0.288 -0.096,0.608 -0.16,0.896 -0.064,0.32 -0.096,0.672 0,1.024 0.448,1.728 1.408,3.2 2.432,4.512 0.864,1.12 1.92,2.24 2.464,3.584 0.192,0.512 0.448,1.024 0.672,1.536 0.224,0.48 0.384,0.96 0.48,1.408 0.448,2.368 0.544,4.768 0.352,7.2 -0.096,1.504 -0.352,2.816 -1.216,3.904 -0.48,0.608 -0.832,0.64 -1.088,0.512 -0.832,-0.48 -1.408,-1.152 -1.6,-2.048 -0.192,-0.768 -0.256,-1.568 -0.384,-2.336 -0.064,-0.48 -0.384,-1.216 -1.344,-1.056 -0.896,0.16 -1.056,0.864 -0.928,1.472 0.16,0.64 0.192,1.312 0.352,1.952 0.32,1.216 0.736,2.56 1.984,3.456 0.448,0.32 0.768,0.672 1.312,0.832 1.76,0.448 2.912,-0.64 3.648,-1.6 1.024,-1.28 1.248,-2.848 1.408,-4.224 z"
         style="font-style:normal;font-variant:normal;font-weight:normal;font-stretch:normal;font-size:32px;font-family:'The Skinny';-inkscape-font-specification:'The Skinny';text-align:center;text-anchor:middle;stroke-width:0.9292295"
         id="path2819" />
    </g>
  </g>
</svg>
